<svg xmlns="http://www.w3.org/2000/svg" version="1.1" xmlns:xlink="http://www.w3.org/1999/xlink" xmlns:svgjs="http://svgjs.dev/svgjs" viewBox="0 0 800 800"><defs><linearGradient x1="50%" y1="0%" x2="50%" y2="100%" id="ffflurry-grad" gradientTransform="rotate(270)"><stop stop-color="#072a6c" stop-opacity="1" offset="0%"></stop><stop stop-color="#ff2524" stop-opacity="1" offset="45%"></stop><stop stop-color="hsl(0, 0%, 100%)" stop-opacity="1" offset="100%"></stop></linearGradient></defs><rect width="100%" height="100%" fill="#072a6c"></rect><g fill="url(#ffflurry-grad)"><rect width="222" height="3" x="408" y="409.5" rx="1.5" transform="rotate(47, 519, 411)" opacity="0.43"></rect><rect width="48" height="3" x="448" y="339.5" rx="1.5" transform="rotate(47, 472, 341)" opacity="0.87"></rect><rect width="427" height="3" x="530.5" y="680.5" rx="1.5" transform="rotate(47, 744, 682)" opacity="0.45"></rect><rect width="191" height="3" x="165.5" y="172.5" rx="1.5" transform="rotate(47, 261, 174)" opacity="0.13"></rect><rect width="531" height="3" x="74.5" y="158.5" rx="1.5" transform="rotate(47, 340, 160)" opacity="0.19"></rect><rect width="105" height="3" x="42.5" y="488.5" rx="1.5" transform="rotate(47, 95, 490)" opacity="0.75"></rect><rect width="135" height="3" x="-42.5" y="316.5" rx="1.5" transform="rotate(47, 25, 318)" opacity="0.39"></rect><rect width="535" height="3" x="225.5" y="43.5" rx="1.5" transform="rotate(47, 493, 45)" opacity="0.35"></rect><rect width="452" height="3" x="521" y="311.5" rx="1.5" transform="rotate(47, 747, 313)" opacity="0.67"></rect><rect width="178" height="3" x="475" y="550.5" rx="1.5" transform="rotate(47, 564, 552)" opacity="0.59"></rect><rect width="383" height="3" x="-103.5" y="333.5" rx="1.5" transform="rotate(47, 88, 335)" opacity="0.67"></rect><rect width="88" height="3" x="227" y="769.5" rx="1.5" transform="rotate(47, 271, 771)" opacity="0.32"></rect><rect width="218" height="3" x="548" y="29.5" rx="1.5" transform="rotate(47, 657, 31)" opacity="0.68"></rect><rect width="101" height="3" x="346.5" y="323.5" rx="1.5" transform="rotate(47, 397, 325)" opacity="0.81"></rect><rect width="587" height="3" x="-0.5" y="299.5" rx="1.5" transform="rotate(47, 293, 301)" opacity="0.96"></rect><rect width="394" height="3" x="-140" y="409.5" rx="1.5" transform="rotate(47, 57, 411)" opacity="0.24"></rect><rect width="66" height="3" x="23" y="747.5" rx="1.5" transform="rotate(47, 56, 749)" opacity="0.54"></rect><rect width="206" height="3" x="260" y="717.5" rx="1.5" transform="rotate(47, 363, 719)" opacity="0.80"></rect><rect width="405" height="3" x="344.5" y="130.5" rx="1.5" transform="rotate(47, 547, 132)" opacity="0.67"></rect><rect width="293" height="3" x="60.5" y="232.5" rx="1.5" transform="rotate(47, 207, 234)" opacity="1.00"></rect><rect width="233" height="3" x="44.5" y="615.5" rx="1.5" transform="rotate(47, 161, 617)" opacity="0.64"></rect><rect width="368" height="3" x="-113" y="143.5" rx="1.5" transform="rotate(47, 71, 145)" opacity="0.85"></rect><rect width="176" height="3" x="617" y="594.5" rx="1.5" transform="rotate(47, 705, 596)" opacity="0.65"></rect><rect width="288" height="3" x="584" y="761.5" rx="1.5" transform="rotate(47, 728, 763)" opacity="0.82"></rect><rect width="264" height="3" x="201" y="553.5" rx="1.5" transform="rotate(47, 333, 555)" opacity="0.66"></rect><rect width="506" height="3" x="-198" y="630.5" rx="1.5" transform="rotate(47, 55, 632)" opacity="0.24"></rect><rect width="85" height="3" x="489.5" y="270.5" rx="1.5" transform="rotate(47, 532, 272)" opacity="0.40"></rect><rect width="214" height="3" x="369" y="743.5" rx="1.5" transform="rotate(47, 476, 745)" opacity="0.43"></rect><rect width="86" height="3" x="339" y="239.5" rx="1.5" transform="rotate(47, 382, 241)" opacity="0.59"></rect><rect width="356" height="3" x="422" y="65.5" rx="1.5" transform="rotate(47, 600, 67)" opacity="0.96"></rect><rect width="65" height="3" x="367.5" y="434.5" rx="1.5" transform="rotate(47, 400, 436)" opacity="0.89"></rect><rect width="175" height="3" x="98.5" y="294.5" rx="1.5" transform="rotate(47, 186, 296)" opacity="0.73"></rect><rect width="291" height="3" x="565.5" y="456.5" rx="1.5" transform="rotate(47, 711, 458)" opacity="0.11"></rect><rect width="473" height="3" x="-66.5" y="139.5" rx="1.5" transform="rotate(47, 170, 141)" opacity="0.83"></rect><rect width="439" height="3" x="64.5" y="50.5" rx="1.5" transform="rotate(47, 284, 52)" opacity="0.79"></rect><rect width="72" height="3" x="352" y="25.5" rx="1.5" transform="rotate(47, 388, 27)" opacity="0.18"></rect><rect width="352" height="3" x="77" y="626.5" rx="1.5" transform="rotate(47, 253, 628)" opacity="0.80"></rect><rect width="304" height="3" x="616" y="493.5" rx="1.5" transform="rotate(47, 768, 495)" opacity="0.18"></rect><rect width="458" height="3" x="525" y="35.5" rx="1.5" transform="rotate(47, 754, 37)" opacity="0.97"></rect><rect width="198" height="3" x="360" y="162.5" rx="1.5" transform="rotate(47, 459, 164)" opacity="0.87"></rect><rect width="673" height="3" x="-271.5" y="48.5" rx="1.5" transform="rotate(47, 65, 50)" opacity="0.81"></rect><rect width="257" height="3" x="432.5" y="486.5" rx="1.5" transform="rotate(47, 561, 488)" opacity="0.47"></rect><rect width="472" height="3" x="-127" y="248.5" rx="1.5" transform="rotate(47, 109, 250)" opacity="0.36"></rect><rect width="115" height="3" x="708.5" y="390.5" rx="1.5" transform="rotate(47, 766, 392)" opacity="0.16"></rect><rect width="786" height="3" x="52" y="532.5" rx="1.5" transform="rotate(47, 445, 534)" opacity="0.83"></rect><rect width="246" height="3" x="-94" y="515.5" rx="1.5" transform="rotate(47, 29, 517)" opacity="0.60"></rect><rect width="202" height="3" x="505" y="197.5" rx="1.5" transform="rotate(47, 606, 199)" opacity="0.65"></rect><rect width="388" height="3" x="-39" y="530.5" rx="1.5" transform="rotate(47, 155, 532)" opacity="0.11"></rect><rect width="66" height="3" x="597" y="616.5" rx="1.5" transform="rotate(47, 630, 618)" opacity="0.10"></rect><rect width="405" height="3" x="548.5" y="224.5" rx="1.5" transform="rotate(47, 751, 226)" opacity="0.25"></rect><rect width="441" height="3" x="456.5" y="162.5" rx="1.5" transform="rotate(47, 677, 164)" opacity="0.14"></rect><rect width="601" height="3" x="-141.5" y="729.5" rx="1.5" transform="rotate(47, 159, 731)" opacity="0.93"></rect><rect width="392" height="3" x="429" y="709.5" rx="1.5" transform="rotate(47, 625, 711)" opacity="0.49"></rect><rect width="604" height="3" x="-112" y="47.5" rx="1.5" transform="rotate(47, 190, 49)" opacity="0.07"></rect><rect width="227" height="3" x="544.5" y="517.5" rx="1.5" transform="rotate(47, 658, 519)" opacity="0.80"></rect><rect width="526" height="3" x="37" y="402.5" rx="1.5" transform="rotate(47, 300, 404)" opacity="0.96"></rect><rect width="438" height="3" x="-36" y="424.5" rx="1.5" transform="rotate(47, 183, 426)" opacity="0.35"></rect><rect width="254" height="3" x="641" y="582.5" rx="1.5" transform="rotate(47, 768, 584)" opacity="0.23"></rect><rect width="629" height="3" x="333.5" y="278.5" rx="1.5" transform="rotate(47, 648, 280)" opacity="0.30"></rect><rect width="509" height="3" x="172.5" y="652.5" rx="1.5" transform="rotate(47, 427, 654)" opacity="0.56"></rect><rect width="532" height="3" x="398" y="368.5" rx="1.5" transform="rotate(47, 664, 370)" opacity="0.88"></rect><rect width="403" height="3" x="324.5" y="626.5" rx="1.5" transform="rotate(47, 526, 628)" opacity="0.29"></rect><rect width="453" height="3" x="-193.5" y="214.5" rx="1.5" transform="rotate(47, 33, 216)" opacity="0.14"></rect><rect width="333" height="3" x="440.5" y="415.5" rx="1.5" transform="rotate(47, 607, 417)" opacity="0.73"></rect><rect width="394" height="3" x="180" y="88.5" rx="1.5" transform="rotate(47, 377, 90)" opacity="0.63"></rect><rect width="281" height="3" x="564.5" y="97.5" rx="1.5" transform="rotate(47, 705, 99)" opacity="0.81"></rect><rect width="145" height="3" x="105.5" y="355.5" rx="1.5" transform="rotate(47, 178, 357)" opacity="0.89"></rect><rect width="588" height="3" x="-48" y="498.5" rx="1.5" transform="rotate(47, 246, 500)" opacity="0.32"></rect><rect width="70" height="3" x="734" y="129.5" rx="1.5" transform="rotate(47, 769, 131)" opacity="0.07"></rect><rect width="219" height="3" x="461.5" y="762.5" rx="1.5" transform="rotate(47, 571, 764)" opacity="0.77"></rect><rect width="396" height="3" x="75" y="699.5" rx="1.5" transform="rotate(47, 273, 701)" opacity="0.70"></rect></g></svg>